<?xml version="1.0" encoding="UTF-8"?>
<svg version="1.1" xmlns="http://www.w3.org/2000/svg" width="819" height="397">
<path d="M0 0 C270.27 0 540.54 0 819 0 C819 131.01 819 262.02 819 397 C548.73 397 278.46 397 0 397 C0 265.99 0 134.98 0 0 Z " fill="#FEFEFE" transform="translate(0,0)"/>
<path d="M0 0 C2.9292877 0.02900044 5.85676217 0.02056272 8.78613281 0.00756836 C25.01908586 0.02468846 41.73314132 1.26512374 53.93457031 13.46655273 C60.93457031 22.5532335 60.93457031 22.5532335 60.93457031 25.46655273 C62.88363281 25.80686523 62.88363281 25.80686523 64.87207031 26.15405273 C73.9144542 28.20913998 81.30245281 33.09796087 86.93457031 40.46655273 C91.15298934 47.4252111 95.3177115 54.70693667 94.78613281 63.02124023 C94.75132812 63.88362305 94.71652344 64.74600586 94.68066406 65.63452148 C94.60022986 67.43261514 94.49621533 69.2298155 94.36816406 71.02514648 C94.13211753 75.99981263 94.13211753 75.99981263 96.40307617 80.22753906 C97.63332583 81.22665978 98.89321673 82.19035922 100.1796875 83.1159668 C105.59481852 87.28353842 108.7299923 96.96183145 109.93457031 103.46655273 C111.03200608 114.64044419 108.45718427 126.26603276 101.93457031 135.46655273 C100.35339682 137.39205054 98.85917682 138.85404458 96.93457031 140.46655273 C96.27457031 140.46655273 95.61457031 140.46655273 94.93457031 140.46655273 C95.01707031 141.35342773 95.09957031 142.24030273 95.18457031 143.15405273 C95.08779036 155.13057212 89.0184276 164.69232867 81.28222656 173.30639648 C73.55008286 180.73606024 62.55345545 183.67287713 52.09472656 183.56811523 C49.63254826 183.45235278 47.32101623 183.08240974 44.93457031 182.46655273 C44.66644531 183.06467773 44.39832031 183.66280273 44.12207031 184.27905273 C42.93457031 186.46655273 42.93457031 186.46655273 41.38354492 187.67871094 C39.16590521 190.41498315 39.56551979 192.78761773 39.56347656 196.25952148 C39.54607878 197.62606025 39.52849458 198.99259665 39.51074219 200.35913086 C39.50072077 202.50053592 39.49706046 204.64177572 39.4987793 206.78320312 C39.46928002 223.75708643 39.46928002 223.75708643 33.45214844 230.00610352 C28.84516507 234.08205944 25.06610945 234.7677016 19.14941406 234.68139648 C14.90106737 234.26929936 12.70525889 232.36371129 10.00048828 229.21508789 C7.92900071 226.45914284 6.30837423 223.72037295 4.69238281 220.67749023 C4.10070312 219.57018555 3.50902344 218.46288086 2.89941406 217.32202148 C2.29226562 216.1734668 1.68511719 215.02491211 1.05957031 213.84155273 C-0.14589396 211.57839078 -1.35162072 209.31536863 -2.55761719 207.05249023 C-3.43111816 205.40458496 -3.43111816 205.40458496 -4.32226562 203.72338867 C-6.50031412 199.65403757 -8.7432458 195.62214543 -11.00341797 191.59790039 C-12.06542969 189.46655273 -12.06542969 189.46655273 -12.06542969 187.46655273 C-12.72542969 187.79655273 -13.38542969 188.12655273 -14.06542969 188.46655273 C-17.85087724 188.73888709 -21.6463117 188.69833368 -25.44042969 188.71655273 C-26.99310547 188.74749023 -26.99310547 188.74749023 -28.57714844 188.77905273 C-29.61226563 188.78420898 -30.64738281 188.78936523 -31.71386719 188.79467773 C-32.64376465 188.80402344 -33.57366211 188.81336914 -34.53173828 188.82299805 C-37.76283941 188.49707518 -40.49132798 187.83971178 -43.60986328 186.97802734 C-50.34867491 185.2268091 -56.77037441 184.99223764 -63.70605469 184.95483398 C-64.95424988 184.93688278 -66.20244507 184.91893158 -67.48846436 184.9004364 C-71.43075292 184.8467459 -75.37292332 184.81257007 -79.31542969 184.77905273 C-82.00687539 184.74743731 -84.69825834 184.71154239 -87.38964844 184.67553711 C-93.94813608 184.59104338 -100.50663984 184.52252084 -107.06542969 184.46655273 C-107.36562012 185.41957275 -107.66581055 186.37259277 -107.97509766 187.35449219 C-109.75165779 192.42520693 -113.36173691 195.02566257 -118.02246094 197.50952148 C-124.51622475 200.23767078 -130.25251185 200.42657391 -136.75292969 197.77905273 C-140.58880043 195.91063376 -143.28042377 193.74303028 -146.06542969 190.46655273 C-146.90074219 189.53842773 -146.90074219 189.53842773 -147.75292969 188.59155273 C-151.04904571 183.25498394 -151.46984983 178.02564788 -150.65917969 171.95483398 C-148.97871336 164.91235339 -144.67694402 160.69695304 -138.93261719 156.59545898 C-133.78282373 153.48188093 -127.87129925 153.95014756 -122.06542969 154.46655273 C-115.80195014 156.19082737 -111.68836341 160.20522223 -108.06542969 165.46655273 C-107.07542969 167.44655273 -107.07542969 167.44655273 -106.06542969 169.46655273 C-94.84542969 169.46655273 -83.62542969 169.46655273 -72.06542969 169.46655273 C-74.04542969 166.49655273 -76.02542969 163.52655273 -78.06542969 160.46655273 C-79.45605469 156.95483398 -79.45605469 156.95483398 -80.31542969 153.77905273 C-80.60933594 152.72331055 -80.90324219 151.66756836 -81.20605469 150.57983398 C-81.48964844 149.55245117 -81.77324219 148.52506836 -82.06542969 147.46655273 C-83.18794799 143.62263503 -84.13266782 140.95750656 -86.94042969 138.09155273 C-96.51479023 127.48969984 -96.85175238 114.49140658 -96.26074219 100.90063477 C-95.58015628 92.41883285 -91.63066448 85.71352879 -86.06542969 79.46655273 C-85.34355469 78.90967773 -84.62167969 78.35280273 -83.87792969 77.77905273 C-81.19184729 74.35198209 -81.8093998 71.03801953 -82.06542969 66.90405273 C-82.41208929 54.89931481 -79.20763896 45.54188026 -71.06542969 36.46655273 C-64.90629481 31.07148602 -56.63014662 24.46655273 -48.06542969 24.46655273 C-47.80117187 23.73307617 -47.53691406 22.99959961 -47.26464844 22.24389648 C-43.92762121 14.51547186 -37.33059151 6.87918322 -29.61669922 3.34448242 C-19.78342371 -0.08737515 -10.32054453 -0.11142871 0 0 Z " fill="#036DCC" transform="translate(235.0654296875,135.533447265625)"/>
<path d="M0 0 C1.57144313 -0.00542964 3.14288117 -0.012557 4.71430969 -0.02124023 C8.95611775 -0.03937664 13.19753387 -0.03244644 17.43934822 -0.01972389 C21.893617 -0.00954572 26.34785383 -0.01900288 30.80212402 -0.02526855 C38.28009012 -0.032531 45.75789783 -0.0229942 53.23583984 -0.00390625 C61.86219207 0.01785982 70.48816604 0.01080745 79.11450911 -0.01121187 C86.54158992 -0.02940598 93.96855734 -0.03190465 101.39565325 -0.0214572 C105.82248153 -0.01524425 110.24913244 -0.01432572 114.6759491 -0.02760315 C118.83926653 -0.03921965 123.0020997 -0.03103106 127.16536522 -0.00802612 C128.68664435 -0.00276981 130.20796475 -0.00419963 131.72922707 -0.01307678 C141.2421838 -0.06343991 149.93979897 0.31830765 157.68164062 6.44726562 C158.19726562 7.08921875 158.71289062 7.73117188 159.24414062 8.39257812 C160.04851562 9.34777344 160.04851562 9.34777344 160.86914062 10.32226562 C164.48742268 16.09918186 164.52359498 21.69731169 164.47119141 28.28662109 C164.47148346 29.25310074 164.47177551 30.21958038 164.47207642 31.21534729 C164.47068762 34.39691269 164.45514747 37.57824134 164.43945312 40.75976562 C164.4357214 42.97079338 164.43287518 45.18182278 164.43087769 47.39285278 C164.42325381 53.20268344 164.40361594 59.01241356 164.38146973 64.82220459 C164.3609845 70.75450277 164.35187024 76.68681724 164.34179688 82.61914062 C164.32036894 94.25199721 164.28624797 105.8847793 164.24414062 117.51757812 C160.15335183 117.54571614 156.36850624 117.54208942 152.36914062 116.64257812 C151.60859375 116.48015625 150.84804688 116.31773438 150.06445312 116.15039062 C148.24414062 115.51757813 148.24414062 115.51757813 147.24414062 113.51757812 C147.1211916 110.52807536 147.05836631 107.56048887 147.03881836 104.56982422 C147.02376928 103.15697616 147.02376928 103.15697616 147.00841618 101.71558571 C146.97695742 98.65742096 146.95222965 95.59924327 146.92773438 92.54101562 C146.90933774 90.65665253 146.89050143 88.77229366 146.87121582 86.88793945 C146.80268748 79.8895359 146.74268642 72.89105095 146.68164062 65.89257812 C146.53726563 50.25882813 146.39289063 34.62507813 146.24414062 18.51757812 C94.10414063 18.51757812 41.96414062 18.51757812 -11.75585938 18.51757812 C-11.75585938 34.02757813 -11.75585938 49.53757813 -11.75585938 65.51757812 C-15.7281536 74.45524012 -18.43176415 78.86809939 -27.05273438 82.66992188 C-36.54492146 86.0106858 -47.02661684 84.93147845 -56.94335938 84.76757812 C-59.06118104 84.74748402 -61.1790211 84.7292384 -63.296875 84.71289062 C-68.45032898 84.66912237 -73.60288873 84.60025461 -78.75585938 84.51757812 C-78.6513085 118.13261682 -78.54154442 151.74763386 -78.42474243 185.36263215 C-78.41097208 189.32695972 -78.3972451 193.29128743 -78.38354492 197.25561523 C-78.37945247 198.43950522 -78.37945247 198.43950522 -78.37527733 199.64731217 C-78.33114585 212.44388431 -78.29053172 225.24046533 -78.25120676 238.03705304 C-78.21080823 251.1576455 -78.16665466 264.2782214 -78.11898082 277.39878947 C-78.08965897 285.50147225 -78.06330164 293.60415373 -78.0406804 301.70685805 C-78.02305105 307.90941993 -78.00020925 314.11195241 -77.9753685 320.31448936 C-77.96597637 322.8667417 -77.95830894 325.41900102 -77.95244026 327.97126389 C-77.94421567 331.43916537 -77.92994956 334.90698905 -77.91407776 338.37486267 C-77.91309965 339.39916018 -77.91212155 340.42345769 -77.9111138 341.47879452 C-77.90290213 342.86120574 -77.90290213 342.86120574 -77.89452457 344.27154446 C-77.89186653 345.07313407 -77.88920849 345.87472369 -77.8864699 346.7006039 C-77.95364486 348.53798878 -77.95364486 348.53798878 -76.75585938 349.51757812 C-74.21459436 349.60999461 -71.70062122 349.63687431 -69.15913391 349.6219635 C-68.35396951 349.62125695 -67.54880512 349.6205504 -66.7192418 349.61982244 C-64.00005537 349.6164267 -61.28093669 349.60606104 -58.56176758 349.59594727 C-56.62064196 349.59243372 -54.6795153 349.58946581 -52.73838806 349.58700562 C-48.54716166 349.58131823 -44.355948 349.57329866 -40.16472816 349.56398201 C-33.53860943 349.55084216 -26.91254915 349.55252635 -20.28642273 349.55821228 C-19.16951516 349.55913236 -18.05260759 349.56005244 -16.90185434 349.56100041 C-13.46061109 349.56397234 -10.01936806 349.56713758 -6.578125 349.5703125 C7.69859391 349.58311494 21.97503831 349.58509944 36.25170898 349.54174805 C46.65185996 349.51027237 57.05159234 349.50692355 67.45175487 349.53650755 C72.95864926 349.55107533 78.46470686 349.55117627 83.97153282 349.51710701 C89.15358913 349.48532528 94.33427205 349.49069878 99.51630211 349.52460861 C101.41822164 349.53043186 103.32023973 349.5225706 105.22203445 349.50001717 C119.42600322 349.34263377 119.42600322 349.34263377 123.55771828 352.01269341 C125.23732117 354.1143966 126.2093921 356.03695588 127.24414062 358.51757812 C128.20171378 360.35130862 129.16004541 362.18464325 130.11914062 364.01757812 C130.83565161 365.51368912 131.54703647 367.01232668 132.24414062 368.51757812 C105.42741915 368.58769733 78.61071143 368.64058062 51.7939167 368.67301464 C39.34207212 368.68847542 26.89028455 368.70954993 14.43847656 368.74389648 C3.58393308 368.77382291 -7.27056911 368.79315887 -18.12515271 368.79984361 C-23.87115473 368.80375034 -29.61703865 368.81291546 -35.36300278 368.8347683 C-40.77527361 368.85518458 -46.18737807 368.86140149 -51.59968376 368.85690117 C-53.58216316 368.85772407 -55.56464833 368.86365893 -57.54709435 368.87519455 C-82.4338809 369.01286096 -82.4338809 369.01286096 -90.17587626 361.36668283 C-95.75134189 354.84153733 -96.33612188 347.49903292 -96.26379395 339.24560547 C-96.27003391 338.1417066 -96.27627387 337.03780773 -96.28270292 335.90045738 C-96.2986009 332.21792332 -96.2860405 328.53605408 -96.2734375 324.85351562 C-96.27886003 322.20670656 -96.28583923 319.55994261 -96.29467773 316.91314697 C-96.31242577 310.48033868 -96.30863966 304.04771752 -96.29702717 297.61490202 C-96.28797843 292.38491504 -96.28677506 287.15498036 -96.29112244 281.92498779 C-96.29173537 281.17945817 -96.2923483 280.43392855 -96.29297981 279.66580713 C-96.29425876 278.1510825 -96.29555562 276.63635789 -96.29687017 275.12163329 C-96.30826508 260.93180621 -96.29517941 246.74208265 -96.27366871 232.55227256 C-96.25579869 220.38766114 -96.25890311 208.22320242 -96.27734375 196.05859375 C-96.29876975 181.91811676 -96.30716655 167.77773041 -96.2948947 153.63723946 C-96.29362055 152.1282158 -96.29236307 150.61919214 -96.29112244 149.11016846 C-96.29050533 148.36777998 -96.28988823 147.62539151 -96.28925243 146.86050642 C-96.28580471 141.63930222 -96.29161537 136.41815571 -96.30104065 131.19696045 C-96.31228128 124.83044313 -96.30917745 118.46412297 -96.28791767 112.09762812 C-96.2774347 108.85184464 -96.27540599 105.60645574 -96.28651428 102.36066437 C-96.29746199 98.83663356 -96.28371376 95.31352313 -96.26379395 91.78955078 C-96.27271683 90.77134939 -96.28163972 89.753148 -96.290833 88.70409203 C-96.17272305 77.91457776 -92.11933725 71.10141823 -84.75585938 63.51757812 C-84.30896633 63.05299698 -83.86207329 62.58841583 -83.40163803 62.10975647 C-79.47430381 58.02970368 -75.50123953 53.99568549 -71.51757812 49.97070312 C-70.88555796 49.33211113 -70.25353779 48.69351913 -69.60236549 48.03557587 C-66.26155152 44.66237056 -62.91680432 41.2931131 -59.56958008 37.92626953 C-56.81585722 35.15469288 -54.07091909 32.37483784 -51.33325195 29.58740234 C-48.00581629 26.19958828 -44.66371653 22.82690952 -41.31080055 19.46431732 C-40.04389314 18.18889543 -38.78209298 16.90837756 -37.52576256 15.62253571 C-35.76316007 13.82074811 -33.98224259 12.03910119 -32.19604492 10.26074219 C-31.43892967 9.47362602 -31.43892967 9.47362602 -30.66651917 8.67060852 C-21.93087897 0.10429777 -11.59460459 -0.06765898 0 0 Z " fill="#0470CD" transform="translate(109.755859375,10.482421875)"/>
<path d="M0 0 C0.86423932 20.60790406 1.29383807 41.20901875 1.55761719 61.83227539 C1.6012329 65.21973542 1.64980651 68.60706371 1.703125 71.99438477 C1.88581374 83.66296815 2.00147924 95.32989148 2 107 C2.00008308 108.2874902 2.00008308 108.2874902 2.00016785 109.6009903 C1.99480886 114.75691872 1.95467545 119.91096011 1.87104416 125.06622505 C1.84794811 126.66993233 1.832816 128.27377747 1.82631302 129.87763786 C1.7434002 145.84624212 1.7434002 145.84624212 -4 152 C-12.19970583 159.78972054 -22.20783095 158.63667741 -32.83203125 158.44921875 C-41.61794261 158.03059048 -47.11902018 155.20602681 -53.875 149.625 C-54.57625 148.75875 -55.2775 147.8925 -56 147 C-56.50015625 146.41476562 -57.0003125 145.82953125 -57.515625 145.2265625 C-62.76816489 138.77562758 -65.75930168 131.75332751 -65.40625 123.32421875 C-64.13655508 116.06009877 -60.19263997 110.30703613 -54.53125 105.734375 C-50.14889403 102.73164961 -45.53716557 100.14869895 -40.87890625 97.6015625 C-38.18227444 96.27366358 -38.18227444 96.27366358 -37 95 C-37.25248627 91.48254713 -37.25248627 91.48254713 -38 88 C-40.83787786 86.58106107 -42.83790084 86.76396653 -46 87 C-58.16001505 91.48076384 -68.00233639 99.03699368 -75 110 C-79.19824408 104.70656181 -79.26571503 100.32489058 -79.375 93.8125 C-79.43107422 92.5740332 -79.43107422 92.5740332 -79.48828125 91.31054688 C-79.59607707 83.71094191 -76.82926208 79.46525167 -72.140625 73.72265625 C-65.85541828 68.20362143 -60.00531159 68.31597338 -52.04296875 68.15625 C-45.84503311 68.00776225 -40.67301623 66.44267148 -35.625 62.8125 C-31.62267965 58.52429962 -30.18036641 54.4349466 -29.75 48.625 C-29.83879199 46.02208329 -29.83879199 46.02208329 -31 44 C-33.97 44 -36.94 44 -40 44 C-40.5259375 46.1346875 -40.5259375 46.1346875 -41.0625 48.3125 C-41.66015625 50.73828125 -41.66015625 50.73828125 -43 53 C-48.10786717 55.8892986 -52.64386113 56.50197634 -58.4375 56.6875 C-59.16904297 56.72166016 -59.90058594 56.75582031 -60.65429688 56.79101562 C-62.43569562 56.87251753 -64.21781749 56.93795523 -66 57 C-66.74619026 47.34927258 -65.49467118 40.53994355 -59.3203125 32.9296875 C-54.26867905 27.56373019 -49.77864054 24.8800805 -42.3125 24.4375 C-36.26759952 24.54249827 -32.54535509 26.60336359 -27.4921875 29.73046875 C-23.84213737 31.5898203 -21.82771566 31.19084487 -18 30 C-17.05392193 27.25038489 -17.05392193 27.25038489 -17 24 C-20.68716364 18.78711347 -26.31205575 16.59546971 -32 14 C-30.71220569 10.20198735 -29.33020124 7.95076533 -26.3125 5.3125 C-25.66925781 4.73113281 -25.02601563 4.14976562 -24.36328125 3.55078125 C-16.99501779 -1.28426105 -8.41297047 -0.14890213 0 0 Z " fill="#FCFDFE" transform="translate(233,150)"/>
<path d="M0 0 C2.04802188 -0.03914863 4.09626434 -0.06684557 6.14453125 -0.08984375 C7.28510986 -0.106521 8.42568848 -0.12319824 9.60083008 -0.14038086 C18.7864142 0.23897064 25.37408711 4.26303767 31.828125 10.59375 C38.21952226 17.67486638 39.55454121 23.1129732 39.46875 32.66796875 C38.9571644 36.30448974 37.81027429 38.82720544 36 42 C32.82697694 42.47595346 30.73203289 42.49673661 28.03125 40.6640625 C27.3609375 40.11492187 26.690625 39.56578125 26 39 C23.24739298 36.76943914 22.22332088 36.03722015 18.625 35.4375 C15.66060444 35.75362546 15.66060444 35.75362546 14 39 C13.92871934 42.20762971 14.30055525 44.18718371 16.421875 46.65234375 C22.50231301 52.15433301 28.20244985 53.50303112 36.3125 53.3046875 C41.05552531 52.76696079 44.1655436 51.29595487 47.2421875 47.4453125 C50.87838901 41.26111576 51.25278915 34.0001859 52 27 C58.30946042 29.16324357 62.16735026 32.43667763 65.3125 38.3125 C68.83450404 45.59971553 68.58469641 52.07411531 68 60 C67.43410156 60.27714844 66.86820312 60.55429688 66.28515625 60.83984375 C65.18494141 61.38318359 65.18494141 61.38318359 64.0625 61.9375 C62.96615234 62.47697266 62.96615234 62.47697266 61.84765625 63.02734375 C60.03750973 63.86371827 60.03750973 63.86371827 59 65 C58.95907063 67.33297433 58.95758277 69.66705225 59 72 C61.4905212 73.2452606 62.98301117 72.96761907 65.75 72.8125 C70.71766065 72.79820457 73.29215259 73.46461061 77 77 C83.13104014 86.07993716 83.56771898 93.19479838 82 104 C80.82153234 107.7710965 79.45664825 110.97853297 76.1171875 113.3203125 C74 114 74 114 72.02734375 113.3203125 C71.33769531 112.92585938 70.64804687 112.53140625 69.9375 112.125 C63.43204945 108.95265509 56.72547489 109.0727464 49.8125 111 C48.4203125 111.495 48.4203125 111.495 47 112 C46.66619186 115.37436186 46.66619186 115.37436186 47 119 C49.20462061 121.28170525 50.43461204 121.9671384 53.62109375 122.15234375 C54.55050781 122.08144531 55.47992188 122.01054687 56.4375 121.9375 C60.07221503 121.85975208 61.81562859 121.91685211 65.1875 123.4375 C67.4545824 126.64268547 67.71852879 128.62853941 67.4765625 132.5 C66.03409228 140.06705688 62.07612618 145.84990168 56.1015625 150.59375 C50.10980489 154.60310454 44.17256269 155.81613405 37 155 C35.06483006 153.06483006 35.14650309 149.5847772 34.6875 147 C33.56323158 141.05451268 32.33944177 135.14421361 29 130 C25.1496895 127.43312633 23.41430237 128.16711276 19 129 C19.3650246 133.23620652 19.73596162 137.1923532 21.0625 141.25 C22.57773645 147.31094582 23.77513634 154.52097025 20.83203125 160.2890625 C18.0043407 163.70555237 14.84138677 165.80492184 11 168 C9.81998451 171.54004646 9.77087654 174.8227256 9.68359375 178.51171875 C9.66281265 179.23994339 9.64203156 179.96816803 9.62062073 180.71846008 C9.55531254 183.04137875 9.49632763 185.36440906 9.4375 187.6875 C9.39429695 189.26368335 9.35068208 190.83985548 9.30664062 192.41601562 C9.1996504 196.27722975 9.09833039 200.13855603 9 204 C8.34 204 7.68 204 7 204 C4.44922696 199.23409196 1.90422511 194.46516503 -0.63549805 189.69335938 C-1.50013162 188.07077306 -2.36633105 186.44902014 -3.23413086 184.828125 C-4.48184065 182.49697174 -5.72387237 180.16287084 -6.96484375 177.828125 C-7.35341049 177.10506165 -7.74197723 176.38199829 -8.14231873 175.63702393 C-11.48458279 169.32533762 -11.48458279 169.32533762 -12 166 C-10.48828125 163.95703125 -10.48828125 163.95703125 -8.3125 161.8125 C-0.43212477 153.44993398 1.09745176 144.88657283 1.31640625 133.76171875 C1.33718735 132.88095169 1.35796844 132.00018463 1.37937927 131.09272766 C1.44453937 128.29106121 1.50360321 125.48930443 1.5625 122.6875 C1.60571715 120.78319394 1.64933244 118.87889688 1.69335938 116.97460938 C1.80018623 112.31649782 1.9015474 107.65829578 2 103 C4.24854831 102.95938737 6.49730789 102.9303549 8.74609375 102.90625 C9.9983374 102.88884766 11.25058105 102.87144531 12.54077148 102.85351562 C17.43322554 103.06069132 19.27272595 103.82785187 23 107 C24.33105037 109.07580474 25.53455939 111.20048149 26.74609375 113.34765625 C27.98474391 115.35053674 27.98474391 115.35053674 31.125 115.6875 C33.9156239 115.14144755 33.9156239 115.14144755 35.9375 114 C37.35047895 111.34027492 37.25992945 109.13268916 36.77734375 106.19921875 C35.06668535 101.35951685 31.23926502 97.23139968 26.76953125 94.7734375 C25.89361328 94.39058594 25.89361328 94.39058594 25 94 C25.48979592 87.51020408 25.48979592 87.51020408 27.875 85.125 C30 84 30 84 33 83 C34.39431504 80.21136993 34.25660094 78.07921132 34 75 C30.41123098 72.60748732 29.23750792 72.44032914 25 73 C19.25648458 75.3792983 16.15135087 78.46280561 13.69140625 84.1328125 C13.09497985 85.74350073 12.5431428 87.3705716 12 89 C8.37 89 4.74 89 1 89 C0.36572771 59.3309015 -0.1911588 29.67666808 0 0 Z " fill="#FCFDFE" transform="translate(248,150)"/>
<path d="M0 0 C45.94935345 0 45.94935345 0 53.52734375 7.2734375 C57.80703707 12.29100897 59.67602631 17.22430266 59.3125 23.8359375 C58.26217568 31.10943345 54.60875077 34.80496176 49 39 C49.86625 39.515625 50.7325 40.03125 51.625 40.5625 C56.25216836 43.63995164 60.23012343 47.6903703 62 53 C62.81802852 60.30861546 61.73315052 66.62391107 58 73 C53.57069496 78.32637947 47.53111804 81.49791021 40.62420654 82.26325989 C38.01538498 82.34460295 35.42215307 82.33809755 32.8125 82.29296875 C31.97525391 82.28994751 31.13800781 82.28692627 30.27539062 82.28381348 C27.1834662 82.26825856 24.09171915 82.22637585 21 82.1875 C14.07 82.125625 7.14 82.06375 0 82 C0 54.94 0 27.88 0 0 Z " fill="#1B212D" transform="translate(389,266)"/>
<path d="M0 0 C45.68421875 0 45.68421875 0 53.49609375 7.25 C58.68432881 13.28721898 60.37635799 20.22844986 60.2734375 28.01953125 C59.5541071 35.86023262 56.28430678 41.43486816 50.5859375 46.72265625 C49 48 49 48 47 49 C48.2935817 53.27937866 49.93441169 56.89472235 52.22265625 60.73046875 C52.84333984 61.78041016 53.46402344 62.83035156 54.10351562 63.91210938 C54.74998047 64.99298828 55.39644531 66.07386719 56.0625 67.1875 C57.34752364 69.34618689 58.63019076 71.50627885 59.91015625 73.66796875 C60.76299194 75.09532349 60.76299194 75.09532349 61.63305664 76.55151367 C63 79 63 79 64 82 C47.13217897 83.50307316 47.13217897 83.50307316 42.7890625 80.44140625 C41.22514064 77.70691258 40.14037151 74.9399173 39 72 C37.4010198 68.58367034 35.65281087 65.26343604 33.875 61.9375 C33.47345703 61.07987061 33.07191406 60.22224121 32.65820312 59.33862305 C31.2651623 56.49121031 31.2651623 56.49121031 28 53 C24.04 52.67 20.08 52.34 16 52 C16 61.57 16 71.14 16 81 C10.72 81 5.44 81 0 81 C0 54.27 0 27.54 0 0 Z " fill="#1A202B" transform="translate(390,160)"/>
<path d="M0 0 C5.28 0 10.56 0 16 0 C16 27.06 16 54.12 16 82 C11.05 82 6.1 82 1 82 C0.505 78.535 0.505 78.535 0 75 C-0.53109375 75.49371094 -1.0621875 75.98742187 -1.609375 76.49609375 C-2.31578125 77.13675781 -3.0221875 77.77742188 -3.75 78.4375 C-4.44609375 79.07558594 -5.1421875 79.71367187 -5.859375 80.37109375 C-10.71400899 84.06522217 -17.15982357 83.67297397 -23 83 C-29.83128158 80.82063549 -35.23658864 77.14651196 -39 71 C-44.01373223 60.40828914 -46.1855647 49.66632927 -42.5 38.1875 C-39.33738501 30.69011201 -34.58460291 24.7832565 -27.0625 21.4375 C-19.23592114 18.84060763 -13.37485756 19.35692146 -5.9453125 22.83203125 C-4 24 -4 24 -1 27 C-0.67 18.09 -0.34 9.18 0 0 Z " fill="#1C212C" transform="translate(622,266)"/>
<path d="M0 0 C7.26 0 14.52 0 22 0 C23.11117187 3.21234375 24.22234375 6.4246875 25.3671875 9.734375 C26.86914462 14.07314087 28.37204751 18.41157884 29.875 22.75 C30.26171875 23.86669067 30.6484375 24.98338135 31.046875 26.13391113 C36.01804976 40.48351778 41.01277606 54.82228966 46.21826172 69.08886719 C46.75990967 70.58401855 46.75990967 70.58401855 47.3125 72.109375 C47.77076172 73.36186035 47.77076172 73.36186035 48.23828125 74.63964844 C49 77 49 77 50 82 C44.06 82 38.12 82 32 82 C29.525 74.08 29.525 74.08 27 66 C16.44 65.67 5.88 65.34 -5 65 C-5.99 68.63 -6.98 72.26 -8 76 C-8.66 77.98 -9.32 79.96 -10 82 C-15.94 82 -21.88 82 -28 82 C-20.26229112 58.53178406 -12.2867549 35.15836064 -4.05456543 11.85879517 C-3.81274536 11.17336639 -3.57092529 10.48793762 -3.32177734 9.78173828 C-3.11370453 9.19304962 -2.90563171 8.60436096 -2.69125366 7.99783325 C-1.77150802 5.33962177 -0.88949538 2.66848614 0 0 Z " fill="#1C212C" transform="translate(412,51)"/>
<path d="M0 0 C1.28648437 -0.02835938 2.57296875 -0.05671875 3.8984375 -0.0859375 C9.932803 0.66045152 13.59254944 4.03236093 17.625 8.375 C18.08390625 7.96507812 18.5428125 7.55515625 19.015625 7.1328125 C19.62921875 6.59398437 20.2428125 6.05515625 20.875 5.5 C21.47828125 4.96632812 22.0815625 4.43265625 22.703125 3.8828125 C28.91462962 -0.99044112 36.08984342 -0.38564672 43.625 0.375 C48.46097244 1.98939318 51.42126114 4.6222365 54.0625 8.9375 C55.97724333 13.14993532 56.75146464 16.35358776 56.73852539 20.95996094 C56.73841209 22.31090851 56.73841209 22.31090851 56.73829651 23.68914795 C56.73313522 24.65282288 56.72797394 25.6164978 56.72265625 26.609375 C56.7212413 27.60253723 56.71982635 28.59569946 56.71836853 29.61895752 C56.71277588 32.78766912 56.7002247 35.95630979 56.6875 39.125 C56.68248405 41.27473856 56.67792131 43.42447823 56.67382812 45.57421875 C56.66280885 50.84117312 56.64554923 56.10807454 56.625 61.375 C51.345 61.375 46.065 61.375 40.625 61.375 C40.62089111 60.12887939 40.61678223 58.88275879 40.61254883 57.59887695 C40.59074633 52.96727362 40.53644485 48.33651846 40.47241211 43.70532227 C40.44924189 41.70247539 40.43483868 39.69950683 40.42944336 37.6965332 C40.42014667 34.81384546 40.37914094 31.93306881 40.33203125 29.05078125 C40.3359639 28.15788895 40.33989655 27.26499664 40.34394836 26.345047 C40.24008656 21.90098137 40.05605206 19.94471279 37.29956055 16.30151367 C33.78958904 13.77324483 31.86855601 13.76877771 27.625 14.375 C23.78849298 16.08011423 22.2020658 17.538623 20.625 21.375 C20.30402172 23.38923125 20.30402172 23.38923125 20.30615234 25.50097656 C20.28628265 26.30150452 20.26641296 27.10203247 20.24594116 27.92681885 C20.22861435 29.20827789 20.22861435 29.20827789 20.2109375 30.515625 C20.19157135 31.39780701 20.1722052 32.27998901 20.1522522 33.18890381 C20.09257152 36.00083816 20.04611717 38.8128137 20 41.625 C19.96180962 43.53387181 19.92275727 45.44272659 19.8828125 47.3515625 C19.78687942 52.02590296 19.70280584 56.70032409 19.625 61.375 C14.345 61.375 9.065 61.375 3.625 61.375 C3.6156543 60.09334961 3.60630859 58.81169922 3.59667969 57.49121094 C3.55679939 52.73483558 3.49104585 47.97910838 3.41748047 43.22314453 C3.38925951 41.16496102 3.36805059 39.1066689 3.35400391 37.04833984 C3.3325901 34.08895215 3.28594779 31.1308718 3.234375 28.171875 C3.23314636 27.25194763 3.23191772 26.33202026 3.23065186 25.38421631 C3.13636863 20.26191836 3.13636863 20.26191836 0.82910156 15.79394531 C-2.48513949 13.66032003 -5.61747188 13.64657324 -9.375 14.375 C-14.09923256 16.8105067 -14.09923256 16.8105067 -16.375 21.375 C-16.48735161 22.70951263 -16.55075649 24.04854389 -16.58032227 25.38745117 C-16.60026749 26.18805466 -16.62021271 26.98865814 -16.64076233 27.81352234 C-16.66583107 29.10272331 -16.66583107 29.10272331 -16.69140625 30.41796875 C-16.71218735 31.3015657 -16.73296844 32.18516266 -16.75437927 33.09553528 C-16.81975754 35.91777785 -16.87870528 38.74011335 -16.9375 41.5625 C-16.98069637 43.47592106 -17.02431102 45.38933273 -17.06835938 47.30273438 C-17.17542695 51.99339437 -17.27672752 56.68414783 -17.375 61.375 C-22.655 61.375 -27.935 61.375 -33.375 61.375 C-33.375 41.575 -33.375 21.775 -33.375 1.375 C-28.425 1.375 -23.475 1.375 -18.375 1.375 C-18.045 3.355 -17.715 5.335 -17.375 7.375 C-16.4675 6.59125 -15.56 5.8075 -14.625 5 C-9.85315948 0.878865 -6.37383015 0.06361108 0 0 Z " fill="#1B202B" transform="translate(680.375,179.625)"/>
<path d="M0 0 C7.61933495 -0.51795121 15.11739653 2.00602362 21.078125 6.80078125 C28.93305057 15.33182699 30.12109375 24.93874859 30.12109375 36.2265625 C16.59109375 36.5565625 3.06109375 36.8865625 -10.87890625 37.2265625 C-9.41042105 44.70993147 -9.41042105 44.70993147 -4.87890625 49.2265625 C-1.1816525 51.07518938 3.08570817 50.70243344 7.12109375 50.2265625 C10.0553257 48.43009396 11.5931473 47.2824554 13.12109375 44.2265625 C18.40109375 44.2265625 23.68109375 44.2265625 29.12109375 44.2265625 C26.70089773 51.48715057 23.96625194 57.1024032 16.93359375 60.6640625 C9.08708774 64.11528704 -0.32340571 64.57873579 -8.6875 62.54296875 C-16.09322938 59.44976116 -21.8454845 54.67771102 -25.1015625 47.28515625 C-28.94455317 37.10798999 -29.0688486 27.36912604 -25.265625 17.09375 C-21.695786 9.71273078 -16.57377429 4.74380435 -8.8984375 1.8671875 C-5.88542456 0.9114155 -3.1300499 0.37742805 0 0 Z " fill="#1B212C" transform="translate(674.87890625,285.7734375)"/>
<path d="M0 0 C7.67725529 4.63726829 10.83314614 10.10836438 13.7109375 18.484375 C14.375 21.9375 14.375 21.9375 14.375 32.9375 C0.845 32.9375 -12.685 32.9375 -26.625 32.9375 C-25.072123 41.66609447 -25.072123 41.66609447 -19.625 46.9375 C-16.00569302 48.14393566 -13.43268995 48.26018559 -9.625 47.9375 C-5.92109979 45.91083762 -3.97136989 44.45705484 -1.625 40.9375 C1.00197064 40.71612607 3.38393964 40.65587975 6 40.75 C6.70640625 40.76353516 7.4128125 40.77707031 8.140625 40.79101562 C9.88574128 40.8263896 11.63046608 40.88019779 13.375 40.9375 C11.57181835 48.19399315 8.64078917 53.17307797 2.27734375 57.296875 C-5.49398561 61.3060094 -13.76274733 62.3316747 -22.3515625 60.2890625 C-29.97350448 57.5281733 -36.2766758 53.03669389 -40.0625 45.75 C-43.97437215 37.13686446 -43.96451178 25.89250345 -41.90625 16.7421875 C-38.53337196 7.84758171 -33.09720065 2.91975161 -24.625 -1.0625 C-17.18563062 -3.54228979 -7.13278974 -3.32137537 0 0 Z " fill="#1A1F2A" transform="translate(787.625,182.0625)"/>
<path d="M0 0 C6.29571757 5.16540534 8.89627288 11.25828421 11 19 C11 22.96 11 26.92 11 31 C-2.53 31 -16.06 31 -30 31 C-27.92653106 40.21940614 -27.92653106 40.21940614 -22 45 C-18.49616667 46.75191667 -14.70477574 45.95978646 -11 45 C-7.99666733 42.66663334 -7.99666733 42.66663334 -6 40 C-5 39 -5 39 -1.62109375 38.90234375 C-0.22652923 38.90901631 1.16801743 38.92097468 2.5625 38.9375 C3.27341797 38.94201172 3.98433594 38.94652344 4.71679688 38.95117188 C6.47790013 38.96299136 8.23896036 38.98092737 10 39 C8.3468821 45.9430952 5.9261276 50.82575684 0 55 C-8.00852501 59.20323207 -16.08512386 60.4227675 -24.890625 58.3046875 C-33.42076561 55.53122648 -38.76049434 51.8427994 -42.875 43.8125 C-46.98240008 34.9584687 -47.62503036 23.60749562 -45.0625 14.0625 C-42.21565133 7.19263984 -36.41703514 0.88143172 -29.875 -2.625 C-20.49877043 -6.07335063 -8.46739011 -5.43452492 0 0 Z " fill="#1A1F2A" transform="translate(502,184)"/>
<path d="M0 0 C4.95 0 9.9 0 15 0 C15.01981934 1.21582764 15.03963867 2.43165527 15.06005859 3.68432617 C15.13624695 8.20390198 15.22494405 12.7231614 15.31738281 17.24243164 C15.35561789 19.19679509 15.39048027 21.15122759 15.421875 23.10571289 C15.46764435 25.91838222 15.52561923 28.73057839 15.5859375 31.54296875 C15.59748871 32.41398727 15.60903992 33.2850058 15.62094116 34.18241882 C15.76884096 40.32689198 15.76884096 40.32689198 18 46 C21.72579089 48.48386059 23.58711402 48.3804212 28 48 C32.17618585 46.34894978 34.00316705 43.9421839 36.15075684 40.04708862 C37.65037788 36.43227332 37.60339683 32.87249553 37.609375 29.00390625 C37.62591125 28.17036118 37.64244751 27.3368161 37.65948486 26.47801208 C37.70771714 23.83943127 37.72927987 21.20142568 37.75 18.5625 C37.77818052 16.76364332 37.80811085 14.96481315 37.83984375 13.16601562 C37.91346895 8.77739117 37.96319429 4.38908141 38 0 C43.28 0 48.56 0 54 0 C54 19.8 54 39.6 54 60 C49.05 60 44.1 60 39 60 C38.505 57.03 38.505 57.03 38 54 C37.113125 54.78375 36.22625 55.5675 35.3125 56.375 C29.46480109 61.54273392 23.10649087 61.51280898 15.61328125 61.3125 C10.77872248 60.894376 8.69307407 60.11859589 5 57 C0.89631859 51.92439405 -0.13115822 47.61043326 -0.11352539 41.2097168 C-0.11344986 40.28913986 -0.11337433 39.36856293 -0.11329651 38.42008972 C-0.10813522 37.4397023 -0.10297394 36.45931488 -0.09765625 35.44921875 C-0.0962413 34.43527542 -0.09482635 33.42133209 -0.09336853 32.37666321 C-0.08778328 29.14691179 -0.07523345 25.91723038 -0.0625 22.6875 C-0.0574831 20.49414163 -0.05292052 18.30078217 -0.04882812 16.10742188 C-0.03781867 10.73825439 -0.02056414 5.36913905 0 0 Z " fill="#191F29" transform="translate(582,181)"/>
<path d="M0 0 C5.28 0 10.56 0 16 0 C16.01458252 1.28165039 16.02916504 2.56330078 16.04418945 3.88378906 C16.1021732 8.64009465 16.17940633 13.39592685 16.26245117 18.15185547 C16.29570011 20.21004553 16.32373214 22.26832676 16.34643555 24.32666016 C16.3799819 27.28587691 16.43229802 30.24425817 16.48828125 33.203125 C16.49467117 34.12305237 16.5010611 35.04297974 16.50764465 35.99078369 C16.6033219 40.98822016 16.6033219 40.98822016 18.38793945 45.57910156 C21.19912665 48.05693126 23.98244466 47.54157463 27.55859375 47.375 C31.15398473 46.82274795 32.68673207 45.80396113 35 43 C37.4910777 37.33918684 38.45749552 32.70865402 38.51171875 26.5625 C38.52966995 25.79695801 38.54762115 25.03141602 38.56611633 24.24267578 C38.61973955 21.82850444 38.65395823 19.41452515 38.6875 17 C38.72071568 15.35023395 38.75520919 13.7004931 38.79101562 12.05078125 C38.87781398 8.03383393 38.93828711 4.01772187 39 0 C43.95 0 48.9 0 54 0 C54 19.8 54 39.6 54 60 C49.38 60 44.76 60 40 60 C40 57.69 40 55.38 40 53 C39.5153125 53.40992188 39.030625 53.81984375 38.53125 54.2421875 C31.87313987 59.59428372 25.85541085 61.57063453 17.30078125 61.3046875 C12.23672533 60.63406549 7.81452588 59.03054086 4.359375 55.1640625 C-0.27812815 48.20780777 -0.14365228 41.11397335 -0.09765625 33.0078125 C-0.0962413 32.06187225 -0.09482635 31.11593201 -0.09336853 30.1413269 C-0.08779484 27.13585171 -0.0752472 24.13045247 -0.0625 21.125 C-0.0574816 19.08073025 -0.05291929 17.03645932 -0.04882812 14.9921875 C-0.03783403 9.99476264 -0.02058757 4.99739417 0 0 Z " fill="#1A1F2A" transform="translate(459,288)"/>
<path d="M0 0 C1.28293945 -0.0299707 1.28293945 -0.0299707 2.59179688 -0.06054688 C9.59209661 -0.05520721 14.68036038 1.68429716 20.12109375 6.11328125 C20.80365234 6.92345703 20.80365234 6.92345703 21.5 7.75 C21.97308594 8.28238281 22.44617188 8.81476563 22.93359375 9.36328125 C24.52607256 12.28925443 24.72132337 15.15514555 25.0625 18.4375 C22.62315775 18.57251894 20.19125896 18.67153897 17.75 18.75 C17.05970703 18.79189453 16.36941406 18.83378906 15.65820312 18.87695312 C13.63671875 18.92578125 13.63671875 18.92578125 10.0625 18.4375 C8.20703125 15.98046875 8.20703125 15.98046875 7.0625 13.4375 C4.62295342 12.21772671 2.90944151 12.23596187 0.1875 12.1875 C-0.67617188 12.16171875 -1.53984375 12.1359375 -2.4296875 12.109375 C-5.52977659 12.51499413 -6.83714875 13.11246001 -8.9375 15.4375 C-9.27147787 18.56336875 -9.27147787 18.56336875 -8.9375 21.4375 C-8.06609375 21.61925781 -7.1946875 21.80101562 -6.296875 21.98828125 C-2.50666712 22.78816278 1.27839316 23.60925172 5.0625 24.4375 C6.74085938 24.79714844 6.74085938 24.79714844 8.453125 25.1640625 C15.50637107 26.77673937 20.29416878 28.59631795 25.4375 33.875 C27.93107426 39.34168203 27.78583839 44.53023647 27.0625 50.4375 C24.67703646 56.00358159 20.4591614 58.97178401 15.0625 61.4375 C4.96254709 64.62261587 -5.12619867 64.39257476 -14.9375 60.4375 C-19.71586103 57.87134315 -22.43035624 55.26607317 -24.9375 50.4375 C-25.51775474 47.73614598 -25.74646866 45.20745445 -25.9375 42.4375 C-20.6575 42.4375 -15.3775 42.4375 -9.9375 42.4375 C-9.2775 44.0875 -8.6175 45.7375 -7.9375 47.4375 C-5.05602909 49.82500446 -3.23380717 50.40517558 0.5 50.8125 C4.323688 50.41000653 6.76601459 49.36714999 10.0625 47.4375 C10.0625 45.4575 10.0625 43.4775 10.0625 41.4375 C4.78318215 38.94857857 -0.15805937 37.6858261 -5.875 36.625 C-12.52262946 35.27175183 -18.38284504 33.85970829 -22.9375 28.4375 C-25.87628814 23.77868536 -25.4319281 18.76032748 -24.9375 13.4375 C-22.85984437 7.42323371 -19.42404323 4.73012043 -13.88671875 1.8515625 C-9.3151889 -0.05633075 -4.89430227 -0.04038809 0 0 Z " fill="#1A202A" transform="translate(545.9375,179.5625)"/>
<path d="M0 0 C1.38378845 -0.00639748 1.38378845 -0.00639748 2.79553223 -0.01292419 C3.81063873 -0.01247101 4.82574524 -0.01201782 5.87161255 -0.0115509 C6.93837219 -0.01490952 8.00513184 -0.01826813 9.10421753 -0.02172852 C12.64534659 -0.03125989 16.18642847 -0.03318276 19.72756958 -0.03425598 C22.181356 -0.03746714 24.63514222 -0.04083111 27.08892822 -0.04434204 C32.23882491 -0.05033886 37.3887048 -0.05218138 42.53860474 -0.05158997 C49.14538873 -0.05148834 55.75206526 -0.06513906 62.35882378 -0.08236217 C67.42879737 -0.09346801 72.49874488 -0.09550961 77.5687294 -0.09498024 C80.00483699 -0.09616255 82.4409452 -0.10059833 84.87704086 -0.10831261 C88.28155846 -0.11808343 91.68584137 -0.11524581 95.09036255 -0.10920715 C96.60694962 -0.11763641 96.60694962 -0.11763641 98.1541748 -0.12623596 C99.08234009 -0.12204147 100.01050537 -0.11784698 100.96679688 -0.11352539 C101.77168989 -0.11407016 102.57658291 -0.11461493 103.40586662 -0.1151762 C105.88805314 0.16506173 107.48440939 0.84041232 109.61038208 2.13371277 C111.6447979 4.74939026 111.61038208 6.27347839 111.61038208 9.63371277 C110.56367092 13.29720182 109.74873909 14.37375574 106.55667305 16.3327961 C102.56469838 17.97553046 98.34839475 17.67736808 94.09451294 17.63542175 C92.52516747 17.64352623 92.52516747 17.64352623 90.92411804 17.65179443 C87.47419743 17.66427709 84.02511198 17.64779406 80.57522583 17.62980652 C78.17439226 17.6299615 75.77355843 17.63145042 73.37272644 17.63421631 C68.34498005 17.63560006 63.31751901 17.62304477 58.28982544 17.6002655 C51.84457756 17.57186606 45.39980323 17.57462286 38.95452023 17.58735561 C33.99857028 17.59430916 29.04272986 17.58652739 24.0867939 17.57409859 C21.71013369 17.56958204 19.33346174 17.56924905 16.95680046 17.57316399 C13.63657378 17.57607332 10.31700078 17.55958212 6.99685669 17.5377655 C6.01437958 17.54226715 5.03190247 17.5467688 4.01965332 17.55140686 C-0.89773904 17.49770381 -4.45926793 17.44025261 -8.38961792 14.13371277 C-10.71711137 10.6424726 -10.89261108 9.24149026 -10.38961792 5.13371277 C-7.20176258 1.20202451 -4.95788558 0.01033235 0 0 Z " fill="#0973CE" transform="translate(113.38961791992188,96.86628723144531)"/>
<path d="M0 0 C0.92904144 -0.0071553 1.85808289 -0.01431061 2.8152771 -0.02168274 C5.88126034 -0.03856894 8.94578124 -0.01916722 12.01171875 0.00219727 C14.14493938 0.00136856 16.27815995 -0.00109087 18.41137695 -0.00511169 C22.8802413 -0.00796965 27.34860444 0.00673176 31.81738281 0.03417969 C37.54423485 0.06826204 43.27019064 0.062244 48.99708557 0.04351711 C53.40148379 0.0329461 57.80567364 0.04188596 62.21005249 0.05690193 C64.32155743 0.06208343 66.43308412 0.06160234 68.54458618 0.05535698 C71.49634555 0.04990369 74.44682408 0.07028413 77.3984375 0.09765625 C78.27027679 0.09113037 79.14211609 0.08460449 80.04037476 0.07788086 C84.05776558 0.14119361 86.2023719 0.33103096 89.71020508 2.44960022 C92.50464808 5.51447942 92.84363013 7.5153791 92.69921875 11.63110352 C90.02700244 15.14315923 87.99656784 16.84987721 83.69921875 17.63110352 C80.78202259 17.7360978 77.88837936 17.78830082 74.97094727 17.79223633 C73.65075592 17.79968369 73.65075592 17.79968369 72.30389404 17.80728149 C69.39529639 17.82187489 66.48675323 17.82869957 63.578125 17.83422852 C61.55557758 17.83998123 59.53303018 17.84573894 57.51048279 17.85150146 C53.27122748 17.86200268 49.03199109 17.86785146 44.79272461 17.87133789 C39.36084258 17.87682813 33.92921051 17.90087124 28.49740696 17.92930984 C24.32040168 17.94793038 20.14345678 17.95314146 15.9664135 17.95467377 C13.96374072 17.95770092 11.96106901 17.96573153 9.95843697 17.97885895 C7.15772548 17.99591102 4.35762708 17.9940415 1.55688477 17.98754883 C0.73022812 17.99676361 -0.09642853 18.00597839 -0.94813538 18.01547241 C-6.7464558 17.97335902 -10.10017211 16.83171266 -14.30078125 12.63110352 C-14.85305379 8.44961142 -14.85780232 6.40136195 -12.35473633 2.94007874 C-8.16857016 -0.22491672 -5.11555424 -0.06860448 0 0 Z " fill="#0570CD" transform="translate(74.30078125,136.368896484375)"/>
<path d="M0 0 C5.28 0 10.56 0 16 0 C16 27.06 16 54.12 16 82 C10.72 82 5.44 82 0 82 C0 54.94 0 27.88 0 0 Z " fill="#1A202B" transform="translate(553,266)"/>
<path d="M0 0 C5.28 0 10.56 0 16 0 C16 27.06 16 54.12 16 82 C10.72 82 5.44 82 0 82 C0 54.94 0 27.88 0 0 Z " fill="#181E29" transform="translate(470,51)"/>
<path d="M0 0 C5.28 0 10.56 0 16 0 C16.33 2.31 16.66 4.62 17 7 C17.721875 6.21625 18.44375 5.4325 19.1875 4.625 C24.82340747 -0.63518031 29.58319486 -0.19778147 37 0 C37 4.29 37 8.58 37 13 C35.30875 13.103125 33.6175 13.20625 31.875 13.3125 C27.30088772 13.74756981 23.80485831 14.24147773 20 17 C16.82504518 21.99841828 16.53405124 26.16647619 16.48828125 31.8984375 C16.47033005 32.73339752 16.45237885 33.56835754 16.43388367 34.42861938 C16.38000078 37.07736261 16.34595639 39.72592794 16.3125 42.375 C16.27930741 44.17841005 16.24481596 45.9817967 16.20898438 47.78515625 C16.12428725 52.18997534 16.05737166 56.5947437 16 61 C10.72 61 5.44 61 0 61 C0 40.87 0 20.74 0 0 Z " fill="#1C222C" transform="translate(713,287)"/>
<path d="M0 0 C1.07745987 -0.00096176 2.15491974 -0.00192352 3.26502991 -0.00291443 C4.48987595 -0.01544754 5.71472198 -0.02798065 6.97668457 -0.04089355 C8.29652847 -0.02763535 9.61637238 -0.01437714 10.97621155 -0.00071716 C12.34857369 -0.00154622 13.72093573 -0.00400701 15.09329224 -0.00802612 C17.96757449 -0.01088256 20.84107684 0.00379787 23.71522522 0.03126526 C27.39195069 0.06531748 31.06727904 0.05934012 34.74407101 0.04060268 C37.57781528 0.03001105 40.41123693 0.03899028 43.24495125 0.0539875 C45.25732247 0.06166311 47.26973289 0.05432688 49.28210449 0.04675293 C50.51010269 0.06258926 51.73810089 0.0784256 53.00331116 0.09474182 C54.08156662 0.1009404 55.15982208 0.10713898 56.27075195 0.11352539 C59.89335956 0.75025724 61.58828785 2.08564597 64.1988678 4.62818909 C65.05804235 7.57312291 64.59742989 9.48951258 64.1988678 12.62818909 C62.38723513 15.30250398 61.32125703 15.58739268 58.1988678 16.62818909 C56.27812828 16.74166616 54.35376761 16.7973637 52.42982483 16.82106018 C50.65250473 16.84515457 50.65250473 16.84515457 48.83927917 16.86973572 C43.43032871 16.91416373 38.02152259 16.95567175 32.61244202 16.97828674 C29.75664793 16.9916331 26.90156723 17.01950136 24.04603577 17.06031799 C19.93279463 17.11910493 15.82031954 17.13694299 11.7066803 17.15162659 C10.42947113 17.17429596 9.15226196 17.19696533 7.83634949 17.22032166 C-2.01423031 17.19675308 -2.01423031 17.19675308 -5.11021423 14.28297424 C-7.19962609 11.00254332 -7.51737376 9.44814408 -6.8011322 5.62818909 C-4.79128869 2.41435433 -3.7660038 0.84457366 0 0 Z " fill="#006CCC" transform="translate(66.80113220214844,181.37181091308594)"/>
<path d="M0 0 C5.28 0 10.56 0 16 0 C16 19.8 16 39.6 16 60 C10.72 60 5.44 60 0 60 C0 40.2 0 20.4 0 0 Z " fill="#191F2A" transform="translate(525,288)"/>
<path d="M0 0 C1.22223518 -0.00956978 1.22223518 -0.00956978 2.46916199 -0.01933289 C3.34728043 -0.02044571 4.22539886 -0.02155853 5.13012695 -0.02270508 C6.03914261 -0.02603348 6.94815826 -0.02936188 7.88471985 -0.03279114 C9.81051121 -0.03785556 11.73631136 -0.04019961 13.66210938 -0.04003906 C16.58974978 -0.04221503 19.51700687 -0.0603467 22.44458008 -0.0793457 C24.31892775 -0.08228193 26.19327721 -0.08426519 28.06762695 -0.08520508 C28.93562424 -0.09239059 29.80362152 -0.09957611 30.69792175 -0.10697937 C43.2349258 -0.06054011 43.2349258 -0.06054011 47.9934082 3.83276367 C49.38074126 7.25485188 48.82903281 9.61691698 47.9309082 13.14526367 C46.03556945 15.72981652 45.04264304 16.10801873 41.9309082 17.14526367 C40.44402986 17.24630268 38.95314269 17.29355561 37.46289062 17.30639648 C36.56152878 17.31600403 35.66016693 17.32561157 34.73149109 17.33551025 C33.75960342 17.33976013 32.78771576 17.34401001 31.78637695 17.34838867 C30.28256218 17.35693878 30.28256218 17.35693878 28.74836731 17.36566162 C26.6258754 17.37511028 24.50336882 17.38164507 22.38085938 17.38549805 C19.14142094 17.39519479 15.90261936 17.42621615 12.66333008 17.45776367 C10.6001828 17.46429481 8.53703099 17.46954484 6.47387695 17.47338867 C5.0251545 17.49190887 5.0251545 17.49190887 3.54716492 17.51080322 C-1.73250712 17.49340698 -5.53163837 17.174227 -10.0690918 14.14526367 C-11.61496055 11.05352616 -11.36268701 8.55096815 -11.0690918 5.14526367 C-7.96344188 1.07579136 -4.99332069 0.02660789 0 0 Z " fill="#066FCD" transform="translate(71.069091796875,225.854736328125)"/>
<path d="M0 0 C4.50251439 2.25125719 6.86147975 4.47785689 9 9 C9.44815667 11.82273436 9.46477018 14.58404759 9.4375 17.4375 C9.4674707 18.54448242 9.4674707 18.54448242 9.49804688 19.67382812 C9.49261141 25.78872432 7.50890864 29.30524627 3.3125 33.8125 C-0.34432732 35.69033025 -3.90302029 36.22800583 -8 36 C-12.92159801 33.6784915 -15.39835473 30.71786825 -18 26 C-18.5529136 23.14544733 -18.56115827 20.39992114 -18.5 17.5 C-18.51546875 16.76652344 -18.5309375 16.03304688 -18.546875 15.27734375 C-18.50970798 10.08325257 -17.36672086 7.1350078 -14 3 C-9.79832591 -0.60143494 -5.30422602 -0.84194064 0 0 Z " fill="#FBFCFC" transform="translate(613,300)"/>
<path d="M0 0 C2.495625 -0.061875 4.99125 -0.12375 7.5625 -0.1875 C8.33408447 -0.21481201 9.10566895 -0.24212402 9.90063477 -0.27026367 C16.05357938 -0.3431863 20.63709107 1.00061552 25.4375 5.0625 C27.73187319 9.3759216 27.75643474 13.21712618 27 18 C24.8814317 22.14886292 22.04970654 24.0115995 17.63671875 25.5078125 C11.82707772 26.59227883 5.87698726 26.1574193 0 26 C0 17.42 0 8.84 0 0 Z " fill="#F6F6F7" transform="translate(406,173)"/>
<path d="M0 0 C0.09907258 4.19915307 0.17156173 8.39768252 0.21972656 12.59765625 C0.23980982 14.02551121 0.26708252 15.45328425 0.30175781 16.88085938 C0.35042669 18.93640368 0.37299967 20.99085855 0.390625 23.046875 C0.41157227 24.28276367 0.43251953 25.51865234 0.45410156 26.79199219 C-0.08482977 30.59928126 -0.96730161 31.71760352 -4 34 C-7.35735137 35.11911712 -9.88205386 35.11365586 -13.41796875 35.09765625 C-14.67158203 35.09443359 -15.92519531 35.09121094 -17.21679688 35.08789062 C-18.52712891 35.07951172 -19.83746094 35.07113281 -21.1875 35.0625 C-22.52278481 35.05748317 -23.85807141 35.05292059 -25.19335938 35.04882812 C-28.46228473 35.03702695 -31.73111991 35.02056297 -35 35 C-30.9766261 30.17747645 -26.77196762 25.62358826 -22.32421875 21.19140625 C-21.71359085 20.57982162 -21.10296295 19.968237 -20.47383118 19.33811951 C-19.19691615 18.06052961 -17.91876007 16.78417897 -16.6394043 15.5090332 C-14.67183434 13.54687744 -12.70973268 11.5793648 -10.74804688 9.61132812 C-9.50292517 8.36686624 -8.25749384 7.12271406 -7.01171875 5.87890625 C-6.12899544 4.99314659 -6.12899544 4.99314659 -5.22843933 4.0894928 C-1.11498548 0 -1.11498548 0 0 0 Z " fill="#F7FBFD" transform="translate(81,43)"/>
<path d="M0 0 C3 0.4375 3 0.4375 4.8125 2.25 C8.31431938 8.70071991 8.02868157 17.1368674 6.3515625 24.1484375 C3.84609965 30.42280173 -0.14962531 34.60622423 -6.2421875 37.50390625 C-10.71266933 39.18221845 -14.35108503 40.09782678 -19 38.4375 C-20.9375 36.75 -20.9375 36.75 -22 34.4375 C-21.875 31.3125 -21.875 31.3125 -21 28.4375 C-17.5962478 26.16833187 -15.01789311 25.76729145 -11.05859375 25.09765625 C-8.6276414 24.5537933 -8.6276414 24.5537933 -7 21.4375 C-6.68419352 19.45964128 -6.68419352 19.45964128 -6.69140625 17.3125 C-6.66626953 16.52359375 -6.64113281 15.7346875 -6.61523438 14.921875 C-6.58007979 13.26570328 -6.54882927 11.60944408 -6.52148438 9.953125 C-6.49505859 9.16421875 -6.46863281 8.3753125 -6.44140625 7.5625 C-6.42795166 6.84320313 -6.41449707 6.12390625 -6.40063477 5.3828125 C-5.6174699 1.58009606 -3.68559262 0.53748226 0 0 Z " fill="#026BCB" transform="translate(213,244.5625)"/>
<path d="M0 0 C3.01125 -0.061875 6.0225 -0.12375 9.125 -0.1875 C10.06230957 -0.21481201 10.99961914 -0.24212402 11.96533203 -0.27026367 C17.97209779 -0.3297556 22.25675252 0.53107727 26.875 4.6875 C28.53768709 8.10524568 28.6581974 11.32140789 28 15 C25.60715901 19.07669207 23.47478487 20.68111604 19 22 C15.72341924 22.23506144 12.47023677 22.18815642 9.1875 22.125 C6.155625 22.08375 3.12375 22.0425 0 22 C0 14.74 0 7.48 0 0 Z " fill="#FCFCFC" transform="translate(406,313)"/>
<path d="M0 0 C2.84625 -0.0825 5.6925 -0.165 8.625 -0.25 C9.51010254 -0.28641602 10.39520508 -0.32283203 11.30712891 -0.36035156 C16.68827905 -0.43544301 19.75397618 0.38351283 24 4 C25.55024464 7.10048928 25.28992015 9.57894218 25 13 C22.86320715 16.38939556 21.8225233 17.72582557 18 19 C16.59175107 19.08021999 15.18002769 19.10765977 13.76953125 19.09765625 C13.04612549 19.09515869 12.32271973 19.09266113 11.57739258 19.09008789 C10.66497803 19.08098389 9.75256348 19.07187988 8.8125 19.0625 C5.904375 19.041875 2.99625 19.02125 0 19 C0 12.73 0 6.46 0 0 Z " fill="#FCFDFD" transform="translate(406,280)"/>
<path d="M0 0 C38 0 38 0 41 2 C29.66666667 7.66666667 15.67105187 3 3 3 C3 28.41 3 53.82 3 80 C13.23 80 23.46 80 34 80 C35.65 80.33 37.3 80.66 39 81 C39 81.33 39 81.66 39 82 C26.13 82 13.26 82 0 82 C0 54.94 0 27.88 0 0 Z " fill="#2B3038" transform="translate(389,266)"/>
<path d="M0 0 C0.66 0 1.32 0 2 0 C3.42976783 4.35813007 4.85377068 8.71808526 6.27246094 13.07983398 C6.75590503 14.56342333 7.24092125 16.04650134 7.72753906 17.52905273 C8.42666824 19.65996993 9.12012543 21.79266126 9.8125 23.92578125 C10.03123779 24.58838455 10.24997559 25.25098785 10.4753418 25.93367004 C11.38547586 28.75405555 12 31.01399134 12 34 C4.74 34 -2.52 34 -10 34 C-7.75 22.75 -7.75 22.75 -6.0546875 17.7734375 C-5.70019531 16.72285156 -5.34570312 15.67226562 -4.98046875 14.58984375 C-4.43326172 12.99849609 -4.43326172 12.99849609 -3.875 11.375 C-3.50246094 10.27542969 -3.12992187 9.17585938 -2.74609375 8.04296875 C-1.83623435 5.36005 -0.92078919 2.67918301 0 0 Z " fill="#F9F9FA" transform="translate(422,68)"/>
<path d="M0 0 C3.44760716 2.12724697 5.70609439 4.11828318 7 8 C7 9.65 7 11.3 7 13 C-1.25 13 -9.5 13 -18 13 C-16.85148515 3.81188119 -16.85148515 3.81188119 -12 0 C-7.81974477 -1.39341841 -4.26686312 -0.97485449 0 0 Z " fill="#F6F7F7" transform="translate(682,299)"/>
<path d="M0 0 C3.02425427 1.27149394 3.82230695 2.31976239 6 5 C6.66 7.64 7.32 10.28 8 13 C-0.58 13 -9.16 13 -18 13 C-16.85279188 4.96954315 -16.85279188 4.96954315 -13 1 C-9.02304039 -0.9884798 -4.32438038 -0.52453697 0 0 Z " fill="#F9F9FA" transform="translate(490,192)"/>
<path d="M0 0 C3.54913097 2.02807484 5.69845872 4.09537617 7 8 C7 9.65 7 11.3 7 13 C-1.25 13 -9.5 13 -18 13 C-16.85279188 4.96954315 -16.85279188 4.96954315 -13 1 C-9.06008887 -0.96995556 -4.29492536 -0.45307739 0 0 Z " fill="#FBFBFB" transform="translate(779,192)"/>
<path d="M0 0 C3.74195779 2.57259598 4.81109157 4.03828434 5.6875 8.5 C5 12 5 12 2.4375 15 C-1 17 -1 17 -4.625 17.0625 C-8.35652858 15.88775952 -9.88915485 15.29291844 -12 12 C-12.79990863 7.98396388 -12.61840725 5.03067876 -10.5 1.5 C-7.01093127 -0.59344124 -3.90090099 -0.88059943 0 0 Z " fill="#191F29" transform="translate(537,264)"/>
<path d="M0 0 C0.33 0 0.66 0 1 0 C1 13.2 1 26.4 1 40 C-3.62 40 -8.24 40 -13 40 C-13 39.34 -13 38.68 -13 38 C-9.04 38 -5.08 38 -1 38 C-1.00523682 36.91992676 -1.01047363 35.83985352 -1.01586914 34.72705078 C-1.03394108 30.72771022 -1.04544007 26.72837328 -1.05493164 22.72900391 C-1.05996682 20.99657586 -1.06679532 19.26415208 -1.07543945 17.53173828 C-1.08754065 15.04458567 -1.09323638 12.55748913 -1.09765625 10.0703125 C-1.10281754 9.29317902 -1.10797882 8.51604553 -1.11329651 7.71536255 C-1.11387171 2.22774341 -1.11387171 2.22774341 0 0 Z " fill="#0A0E17" transform="translate(736,201)"/>
<path d="M0 0 C-0.78375 0.433125 -1.5675 0.86625 -2.375 1.3125 C-5.21698375 2.89220247 -5.21698375 2.89220247 -7 6 C-7.75240967 6.44706299 -8.50481934 6.89412598 -9.2800293 7.35473633 C-12.47426772 9.28687642 -14.92816293 11.67680577 -17.51953125 14.32421875 C-18.02296555 14.83048294 -18.52639984 15.33674713 -19.04508972 15.85835266 C-20.63901748 17.46340218 -22.22581707 19.07529144 -23.8125 20.6875 C-24.89732164 21.78236179 -25.98260355 22.87676774 -27.06835938 23.97070312 C-29.71759348 26.64189128 -32.36046077 29.31923284 -35 32 C-35.66 31.67 -36.32 31.34 -37 31 C-32.80720569 26.75774441 -28.60786689 22.52211785 -24.40234375 18.29248047 C-22.97279274 16.8528759 -21.54504243 15.41148085 -20.11914062 13.96826172 C-18.06852169 11.89336666 -16.01149982 9.8250101 -13.953125 7.7578125 C-13.31755676 7.11192169 -12.68198853 6.46603088 -12.02716064 5.80056763 C-11.42684021 5.20009613 -10.82651978 4.59962463 -10.20800781 3.98095703 C-9.68394348 3.45245148 -9.15987915 2.92394592 -8.61993408 2.37942505 C-5.50275749 -0.2749493 -4.00219164 -1.33406388 0 0 Z " fill="#0053C1" transform="translate(91,14)"/>
<path d="M0 0 C2.91843445 2.626591 4.94517315 5.66976339 7 9 C7 9.66 7 10.32 7 11 C0.73 11 -5.54 11 -12 11 C-12.66 9.35 -13.32 7.7 -14 6 C-13.01 6.495 -13.01 6.495 -12 7 C-12 7.66 -12 8.32 -12 9 C-7.05 8.67 -2.1 8.34 3 8 C2.01 6.02 1.02 4.04 0 2 C0 1.34 0 0.68 0 0 Z " fill="#2E3136" transform="translate(447,231)"/>
<path d="M0 0 C5.28 0 10.56 0 16 0 C13.75 6.75 13.75 6.75 10 10 C10.309375 9.236875 10.61875 8.47375 10.9375 7.6875 C11.67893593 5.81210323 12.36228217 3.91315348 13 2 C11.0412957 2.14076315 9.08303907 2.2877676 7.125 2.4375 C6.03445313 2.51871094 4.94390625 2.59992188 3.8203125 2.68359375 C1.05271029 2.83001703 1.05271029 2.83001703 -1 4 C-0.67 2.68 -0.34 1.36 0 0 Z " fill="#151822" transform="translate(688,330)"/>
<path d="M0 0 C4.95 0 9.9 0 15 0 C14.67 1.65 14.34 3.3 14 5 C13.34 4.67 12.68 4.34 12 4 C10.12943209 3.7724985 8.25314042 3.59037189 6.375 3.4375 C5.37210938 3.35371094 4.36921875 3.26992187 3.3359375 3.18359375 C2.56507813 3.12300781 1.79421875 3.06242188 1 3 C0.67 2.01 0.34 1.02 0 0 Z " fill="#2B2E36" transform="translate(786,223)"/>
<path d="M0 0 C1.27230469 0.00902344 2.54460938 0.01804688 3.85546875 0.02734375 C5.31919922 0.04474609 5.31919922 0.04474609 6.8125 0.0625 C6.4825 1.0525 6.1525 2.0425 5.8125 3.0625 C3.89614783 3.11673638 1.97935075 3.15539963 0.0625 3.1875 C-1.53851562 3.22230469 -1.53851562 3.22230469 -3.171875 3.2578125 C-6.11220106 3.06737687 -7.71111878 2.58920104 -10.1875 1.0625 C-6.62704823 -0.12431726 -3.74941663 -0.03439832 0 0 Z " fill="#262B35" transform="translate(774.1875,239.9375)"/>
<path d="M0 0 C4.95 0 9.9 0 15 0 C14.34 2.31 13.68 4.62 13 7 C12.01 7.495 12.01 7.495 11 8 C11.66 6.02 12.32 4.04 13 2 C8.71 2 4.42 2 0 2 C0 1.34 0 0.68 0 0 Z " fill="#25272E" transform="translate(497,223)"/>
<path d="M0 0 C1.17755859 -0.02126953 1.17755859 -0.02126953 2.37890625 -0.04296875 C4.4375 0.1875 4.4375 0.1875 6.4375 2.1875 C3.79291621 3.50979189 1.75988699 3.28427194 -1.1875 3.25 C-2.19039062 3.24097656 -3.19328125 3.23195313 -4.2265625 3.22265625 C-4.99742187 3.21105469 -5.76828125 3.19945312 -6.5625 3.1875 C-6.8925 2.5275 -7.2225 1.8675 -7.5625 1.1875 C-4.76092552 0.25364184 -2.90802197 0.02395405 0 0 Z " fill="#2A2D34" transform="translate(677.5625,285.8125)"/>
<path d="M0 0 C-0.78375 0.433125 -1.5675 0.86625 -2.375 1.3125 C-5.21698375 2.89220247 -5.21698375 2.89220247 -7 6 C-8.64333504 7.03789581 -10.31243867 8.03567924 -12 9 C-13.34631825 9.98244845 -14.68441297 10.97676564 -16 12 C-14.6213147 8.90137066 -13.02976802 6.75876568 -10.625 4.375 C-10.03976563 3.78460937 -9.45453125 3.19421875 -8.8515625 2.5859375 C-5.64514001 -0.16049189 -4.13867317 -1.37955772 0 0 Z " fill="#065CC6" transform="translate(91,14)"/>
<path d="M0 0 C2.30004954 2.20335076 4.26558323 4.52367168 6.1875 7.0625 C6.71730469 7.75472656 7.24710938 8.44695312 7.79296875 9.16015625 C9 11 9 11 9 13 C9.66 13.33 10.32 13.66 11 14 C8.02045283 13.67040407 7.09872963 13.11197385 5.078125 10.8203125 C4.47484375 9.93085938 3.8715625 9.04140625 3.25 8.125 C2.63640625 7.24070312 2.0228125 6.35640625 1.390625 5.4453125 C0 3 0 3 0 0 Z " fill="#1466CA" transform="translate(169,286)"/>
<path d="M0 0 C0.99 0.33 1.98 0.66 3 1 C2.01 1.495 2.01 1.495 1 2 C0.59270772 4.32156597 0.25561323 6.6568787 0 9 C-0.66 9 -1.32 9 -2 9 C-2.6875 6.1875 -2.6875 6.1875 -3 3 C-1.5625 1.125 -1.5625 1.125 0 0 Z " fill="#0B63C7" transform="translate(269,278)"/>
<path d="M0 0 C0.66 0.99 1.32 1.98 2 3 C1.67 3.99 1.34 4.98 1 6 C0.34 6 -0.32 6 -1 6 C-1.33 7.65 -1.66 9.3 -2 11 C-2.66 10.67 -3.32 10.34 -4 10 C-2.68 6.7 -1.36 3.4 0 0 Z " fill="#11151E" transform="translate(402,82)"/>
<path d="M0 0 C0 4.38968456 -2.12805101 5.76905739 -5 9 C-5.33 8.34 -5.66 7.68 -6 7 C-4.02 4.69 -2.04 2.38 0 0 Z " fill="#0C0F16" transform="translate(658,292)"/>
</svg>
